<svg xmlns="http://www.w3.org/2000/svg" width="36" height="36" viewBox="0 0 36 36">
    <defs>
        <linearGradient id="a" x1="50%" x2="50%" y1="0%" y2="100%">
            <stop offset="0%" stop-color="#DF0810"/>
            <stop offset="100%" stop-color="#F9565D"/>
        </linearGradient>
    </defs>
    <g fill="none" fill-rule="evenodd">
        <path fill="url(#a)" d="M11 6h17.778a5 5 0 0 1 5 5v17.778a5 5 0 0 1-5 5H11a5 5 0 0 1-5-5V11a5 5 0 0 1 5-5z" transform="rotate(45 21.303 16.475)"/>
        <path fill="#FFF" d="M20.487 13.25c-.048 0-.088-.1-.088-.225 0-.124.04-.224.088-.224.048 0 .087.1.087.224s-.039.224-.087.224m-2.258-1.235a.443.443 0 1 1 0-.886.443.443 0 0 1 0 .886m-.911 12.263s.141.064.293.05c0 0-.025.383-.187.66-.162.276-.223.424-.227.48 0 0-.078.112-.3.153-.221.041-.24.125-.24.125s-.055-.047-.114-.078c0 0-.13-.333-.294-.568 0 0-.03-.162-.012-.471l-.053-.015s.482-.065.746-.213c.265-.148.388-.123.388-.123m4.202-13.182s-.093.066-.142.202c0 0-.002-.111.047-.202 0 0-.6.297-1.013.235-.414-.061-.874-.582-1.181-1-.308-.419-.333-.492-.443-.574 0 0-.09-.214-.146-.441-.055-.228-.246-.454-.847-.21 0 0-1.212.213-1.967 1.18 0 0-1.293.914-1.473 2.021-.18 1.108.196 2.125.746 2.887.55.763 1.763 2.289.722 2.937 0 0 .047-.055.062-.103 0 0-.53-.335-.874-.362 0 0 .045-.007.095-.003 0 0-.596-.897-1.416-.722-.82.175-1.28 1.488-1.28 1.488s-.41.634-.13.93c0 0 .07-.124.164-.19 0 0-.558.725-.423 1.357.136.631.427.401.558.57 0 0-.025-.156.05-.292 0 0 .011 1.157.364 1.64 0 0 .287.612.595.837 0 0 .015 1.053 1.442.807 0 0-.04.023-.104.045 0 0 .262.349.722.392 0 0-.052.003-.112 0 0 0 .03.378-.085.624s-.273.52-.263.738c0 0-.114.025-.19.104 0 0-.157.033-.17.128 0 0-.09.074-.132.23 0 0 .126-.057.18.016 0 0 .08.134.233.145 0 0 .082.077.213.077 0 0 .15.147.323.161 0 0 .057.145.191.14 0 0 .156.106.271.1.115-.005.276-.062.252-.28 0 0 .043-.066.03-.162 0 0 .04.161.213.221 0 0 .276.115.612.055 0 0 .461.12.659.03 0 0 .244-.071.457.025 0 0 .052-.421-.326-.566 0 0 .159.033.263.082 0 0 .238.026.488.015 0 0 .277.074.562.02 0 0 .465.097.742 0 0 0 .222-.104.474.003 0 0-.015-.402-.378-.51 0 0-.303-.197-.738-.245-.434-.047-.808-.28-.902-.381 0 0-.114-.253-.259-.545l.014-.432s-.055.013-.137.016c0 0 .418-.087.673-.328 0 0 .672-.23.855-.427 0 0-.074.099-.153.143 0 0 1.816-.082 1.98-2.86 0 0 .396-1.116.019-1.82-.378-.706-.845-1.059-1.075-1.551 0 0-.328-.796-1.025-1.271-.697-.476-.78-1.1-.878-1.526 0 0 .517-.402.71-.394.193.009.504.041 1.255.632.75.59 1.771.451 2.214.033 0 0-.362-.194-.52-.419-.16-.224-.342-.582-.528-.557-.186.024-.624.207-.842.145-.219-.063-.512-.818-1.373-.98-.86-.16-1.41-.543-1.856-.549-.446-.005-1.389.367-1.389.367s1.121-.542 1.646-.394c.525.148.738.333 1.651.52.913.185 1.11.956 1.362.973.251.016.853-.316 1.041-.033.19.283.37.59.702.78.332.188.324.434.434.434.111 0 .242-.205.468-.644.225-.439.936-2.757-1.984-3.512"/>
    </g>
</svg>
