<svg xmlns="http://www.w3.org/2000/svg" width="36" height="36" viewBox="0 0 36 36">
    <defs>
        <linearGradient id="a" x1="50%" x2="50%" y1="0%" y2="100%">
            <stop offset="0%" stop-color="#E35804"/>
            <stop offset="100%" stop-color="#F97B30"/>
        </linearGradient>
    </defs>
    <g fill="none" fill-rule="evenodd">
        <path fill="url(#a)" d="M11 6h17.778a5 5 0 0 1 5 5v17.778a5 5 0 0 1-5 5H11a5 5 0 0 1-5-5V11a5 5 0 0 1 5-5z" transform="rotate(45 21.136 16.072)"/>
        <path fill="#FFF" fill-rule="nonzero" d="M15.868 11c2.227-.007 3.923 1.477 3.941 3.75 0 .638-.09 1.255-.398 1.828-.31.573-.837 1.11-1.748 1.565a.194.194 0 0 0-.092.226c.028.084.122.14.21.125 2.016-.366 3.115.219 4.228.692 1.046.444 2.141.73 3.783-.03-.063 1.732-.674 3.413-1.607 4.67C23.2 25.152 21.888 26 20.56 26h-5.63c-1.265-.093-2.146-.586-2.722-1.271-.577-.688-.844-1.579-.844-2.479 0-1.787 1.263-3.06 2.21-4.195a.192.192 0 0 0 .013-.217l-.499-.832.31-.469a.192.192 0 0 0-.005-.217c-.53-.828-.915-1.39-.903-2.32 0-1.762 1.589-3 3.378-3zm-1.501 2.625a.563.563 0 1 0 0 1.126.563.563 0 0 0 0-1.126zm-2.235.709c.075.791.413 1.46.88 2.104l-.252.375c-2.326.127-3.14-1.245-3.091-2.227.593.063 1.352.409 2.463-.252zM16.806 20c-1.951 0-2.815 1.213-2.815 2.25.019 1.691 1.394 2.617 2.815 2.625 1.338 0 2.657-.257 3.96-.38.143-.018.208-.235.1-.329l-.734-.586 1.279-.797c.107-.065.11-.247.005-.316l-.862-.574 1.59-.791c.138-.068.11-.318-.041-.352-1.756-.254-3.457-.694-5.297-.75zm0 .375c.804 0 3.002.31 4.663.645l-1.366.685c-.117.058-.13.249-.024.322l.886.586-1.255.785c-.106.063-.115.237-.018.311l.587.469c-1.171.132-2.33.322-3.473.322-1.311.033-2.466-.912-2.44-2.25 0-1.485 1.49-1.854 2.44-1.875z"/>
    </g>
</svg>
