<svg xmlns="http://www.w3.org/2000/svg" width="36" height="36" viewBox="0 0 36 36">
    <defs>
        <linearGradient id="a" x1="50%" x2="50%" y1="0%" y2="100%">
            <stop offset="0%" stop-color="#027129"/>
            <stop offset="100%" stop-color="#41A865"/>
        </linearGradient>
    </defs>
    <g fill="none" fill-rule="evenodd">
        <path fill="url(#a)" d="M11.111 6.111H28.89a5 5 0 0 1 5 5V28.89a5 5 0 0 1-5 5H11.11a5 5 0 0 1-5-5V11.11a5 5 0 0 1 5-5z" transform="rotate(45 21.414 16.586)"/>
        <path d="M20.994 26.937l.013-.017-.026-.001z"/>
        <path fill="#FFF" fill-rule="nonzero" d="M17.397 24.816l-.927-1.137.083 1.104-.412.673-1.45.07-.68.66.71-.25 1.028.08.86.468-.356-.729.655-.168z"/>
        <path fill="#FFF" fill-rule="nonzero" d="M20.988 22.525l-2.323-1.63 2.851-1.174 1.728-5.312 1.925-.283-1.962-.742 1.841-.334-1.934-.638 2.004-.693-2.21-.073 1.197-1.204-1.533.456.929-1.505-1.49.888.864-2.048L21.6 9.608l.76-2.43-1.34 1.982.841-2.808-1.47 2.626-2.83 3.094-.616 2.954-1.27 2.915-1.964 1.328-1.486 1.434-.308 1.052.306 1.017.544.305-.252-.369.374-.828 1 .112.663.548 1.122.112.767.636 1.082 1.327-.004.01.005-.01.636 1.415-.757.196-.206.43.412-.13.57-.104.551.215.552.488-.131-.379-.542-.58-.084-.41.269-.368.282-1.52.56 1.252.01 1.747.657-1.389.71 1.459.2-1.384.885 1.4.187-1.188.922 1.312-.1-1.225 1.82 1.296h.242l-3.246-3.788z"/>
        <path d="M21 26.953l.014-.016-.026-.001z"/>
        <path fill="#FFF" fill-rule="nonzero" d="M15.524 17.81l-.149-1.476-1.57-3.196-2.16-2.178-3.037-.632 2.625 1.343-2.558-.41 2.918 1.166-2.58.117 2.662.546-2.347.622 2.766-.116-1.806 1.502 2.107-.876-1.628 1.565.01.014 1.86-.514.766 1.87-.028 2.065z"/>
    </g>
</svg>
