<svg xmlns="http://www.w3.org/2000/svg" xmlns:xlink="http://www.w3.org/1999/xlink" width="157" height="50" viewBox="0 0 157 50">
    <defs>
        <path id="a" d="M0 49.916h156.252V0H0z"/>
    </defs>
    <g fill="none" fill-rule="evenodd">
        <path fill="#FCB117" d="M39.221 22.891L36.6 30.225a1.056 1.056 0 0 0 .995 1.412h2.284c.522 0 .965-.38 1.044-.897l.533-3.476-2.234-4.373z"/>
        <path fill="#252525" d="M16.277 45.66v3.883H0V23.409h4.032v22.25z"/>
        <mask id="b" fill="#fff">
            <use xlink:href="#a"/>
        </mask>
        <path fill="#252525" d="M21.074 49.542h3.846v-19.6h-3.846v19.6zm1.867-23.856c-.872 0-1.518-.224-1.942-.672-.423-.448-.634-1.032-.634-1.754 0-.622.211-1.182.634-1.68.424-.498 1.07-.747 1.942-.747.87 0 1.518.224 1.941.672.423.448.635 1.033.635 1.755 0 .622-.212 1.182-.635 1.68-.423.497-1.07.746-1.941.746zM36.33 49.543h-3.845V33.675h-4.069v-3.732h4.07v-5.004h3.845v5.004h4.555v3.732H36.33z" mask="url(#b)"/>
        <path fill="#252525" d="M53.406 49.543h-3.845V33.675H38.642v-3.732h10.919v-5.004h3.845v5.004h4.555v3.732h-4.555zM61.127 49.542h3.846V21.915h-3.846zM78.213 33.041c-1.469 0-2.75.342-3.845 1.027-1.095.684-1.817 1.86-2.165 3.528h10.976v-.262a4.288 4.288 0 0 0-.84-2.24 5.075 5.075 0 0 0-1.81-1.512 5.113 5.113 0 0 0-2.316-.541zm8.027 13.925h-.037c-.797.772-1.891 1.456-3.286 2.054-1.393.597-2.85.896-4.367.896-2.042 0-3.84-.43-5.395-1.288-1.556-.859-2.77-2.04-3.64-3.547-.872-1.505-1.307-3.216-1.307-5.133 0-2.19.46-4.063 1.381-5.619.92-1.555 2.14-2.75 3.66-3.584 1.517-.834 3.173-1.25 4.964-1.25 1.643 0 3.137.404 4.48 1.213 1.345.809 2.414 1.922 3.211 3.34.797 1.42 1.195 3.075 1.195 4.966l-.037 1.643H72.054c.223 1.768.951 3.168 2.184 4.2 1.231 1.033 2.793 1.55 4.685 1.55 1.368 0 2.476-.255 3.323-.766.845-.51 1.542-1.001 2.09-1.475l1.904 2.8zM103.115 38.118h-6.832v7.542h7.019c1.418 0 2.576-.318 3.472-.952.896-.635 1.344-1.611 1.344-2.93 0-.947-.261-1.681-.784-2.204a4.45 4.45 0 0 0-1.923-1.12 8.08 8.08 0 0 0-2.296-.336zm-.635-10.826h-6.197v6.944h6.645c1.02-.025 1.923-.336 2.707-.934.784-.597 1.176-1.443 1.176-2.538 0-1.245-.417-2.134-1.25-2.67-.835-.535-1.861-.802-3.08-.802zm.672-3.883c2.539 0 4.455.56 5.75 1.68 1.294 1.12 1.941 2.75 1.941 4.89 0 1.17-.28 2.216-.84 3.137-.56.92-1.387 1.642-2.483 2.165a7.53 7.53 0 0 1 2.296 1.25c.71.56 1.289 1.276 1.737 2.147.448.872.672 1.93.672 3.174 0 1.518-.262 2.775-.784 3.77-.523.996-1.208 1.78-2.054 2.352a8.282 8.282 0 0 1-2.8 1.214c-1.02.237-2.04.354-3.061.354H92.25V23.41h10.901zM115.701 49.542h3.846v-19.6H115.7v19.6zm1.867-23.856c-.871 0-1.518-.224-1.94-.672-.424-.448-.636-1.032-.636-1.754 0-.622.212-1.182.635-1.68.423-.498 1.07-.747 1.941-.747s1.518.224 1.942.672c.423.448.635 1.033.635 1.755 0 .622-.212 1.182-.635 1.68-.424.497-1.07.746-1.942.746zM134.635 34.086a4.849 4.849 0 0 0-2.053-.448c-.797 0-1.581.206-2.352.616a5.284 5.284 0 0 0-1.923 1.755c-.51.76-.765 1.662-.765 2.707v10.827h-3.883v-19.6h3.883v3.695a7.198 7.198 0 0 1 2.483-2.95c1.107-.77 2.27-1.156 3.49-1.156.92 0 1.63.124 2.128.373l-1.008 4.181zM146.582 46.593c1.195 0 2.24-.299 3.136-.896.896-.597 1.593-1.419 2.091-2.464.498-1.045.747-2.215.747-3.51 0-1.318-.25-2.494-.747-3.527-.498-1.033-1.195-1.848-2.09-2.446-.897-.597-1.942-.896-3.137-.896-1.17 0-2.203.299-3.099.896-.895.598-1.6 1.413-2.109 2.446-.51 1.033-.765 2.209-.765 3.528 0 1.294.255 2.464.765 3.509s1.214 1.867 2.11 2.464c.895.597 1.928.896 3.098.896zm9.67-24.678v27.627h-3.846V46.78c-.573.772-1.418 1.487-2.538 2.146-1.12.66-2.39.99-3.808.99-1.768 0-3.36-.435-4.779-1.307-1.419-.87-2.539-2.078-3.36-3.621-.822-1.543-1.232-3.298-1.232-5.264 0-1.991.41-3.752 1.232-5.283.821-1.53 1.928-2.731 3.322-3.603 1.394-.87 2.962-1.306 4.704-1.306 1.394 0 2.657.286 3.79.858 1.132.573 2.022 1.245 2.67 2.016v-10.49h3.845z" mask="url(#b)"/>
        <path fill="#F7DA70" d="M48.514 26.15a.568.568 0 0 0 .416-.686l-1.272-5.168a2.188 2.188 0 1 0-3.988 1.67l1.813 2.943a2.78 2.78 0 0 0 3.03 1.242" mask="url(#b)"/>
        <path fill="#000" fill-opacity=".15" d="M39.221 22.891l-.746 2.086c-.68 2.626.134 3.327 2.802 3.448l.178-1.161-2.234-4.373z" mask="url(#b)"/>
        <path fill="#F8E9B4" d="M46.481 28.582h-1.19l-.363-.93.212-.758a.69.69 0 1 0-1.327-.373l-.275.982a.69.69 0 0 0 .022.437l.25.642h-.178a.69.69 0 1 0 0 1.379H46.48a.69.69 0 0 0 0-1.38" mask="url(#b)"/>
        <path fill="#EADAA1" d="M46.487 28.582h-1.19l-.364-.93.213-.758a.69.69 0 1 0-1.328-.373l-.275.982a.69.69 0 0 0 .022.437l.251.642h-.179a.69.69 0 1 0 0 1.379H46.487a.69.69 0 0 0 0-1.38" mask="url(#b)"/>
        <path fill="#FCB117" d="M47.877 22.538c-.185 2.207-1.889 4.934-5.12 4.934-2.495 0-4.863-.645-3.536-4.58 1.151-3.413 1.614-5.408 4.11-5.408 3.931 0 4.904.802 4.546 5.054" mask="url(#b)"/>
        <path fill="#000" fill-opacity=".15" d="M43.33 17.484c-1.594 0-2.358.815-3.002 2.292 1.349.462 2.89.69 4.528.69 1.064 0 2.087-.096 3.044-.29-.248-2.208-1.516-2.692-4.57-2.692" mask="url(#b)"/>
        <path fill="#F7DA70" d="M37.404 26.022a.568.568 0 0 1-.38-.708l1.537-5.095a2.188 2.188 0 1 1 3.897 1.874l-1.963 2.846a2.78 2.78 0 0 1-3.091 1.083" mask="url(#b)"/>
        <path fill="#F8E9B4" d="M43.635 28.582h-1.19l-.363-.93.213-.758a.69.69 0 0 0-1.328-.373l-.275.982a.69.69 0 0 0 .022.437l.25.642h-.178a.69.69 0 1 0 0 1.379H43.635a.69.69 0 0 0 0-1.38" mask="url(#b)"/>
        <path fill="#FCB117" d="M45.688 0c.769 0 1.367.67 1.28 1.433l-.345 3.06a.94.94 0 0 1-1.87 0l-.346-3.06A1.289 1.289 0 0 1 45.687 0" mask="url(#b)"/>
        <path fill="#FCB117" d="M41.855 1.393a1.289 1.289 0 0 1 1.919.108l1.92 2.408a.941.941 0 0 1-1.323 1.323l-2.408-1.92a1.289 1.289 0 0 1-.108-1.919" mask="url(#b)"/>
        <path fill="#FCB117" d="M54.553 12.108c0 4.991-4.299 7.383-9.601 7.383-5.304 0-9.603-2.392-9.603-7.383 0-4.99 4.3-8.476 9.603-8.476 5.302 0 9.601 3.486 9.601 8.476" mask="url(#b)"/>
        <path fill="#252525" d="M45.497 13.031a.502.502 0 0 1-.503-.503.344.344 0 0 0-.687 0 .502.502 0 1 1-1.005 0 1.35 1.35 0 0 1 1.348-1.348A1.35 1.35 0 0 1 46 12.528a.502.502 0 0 1-.503.503M52.993 13.031a.502.502 0 0 1-.503-.503.344.344 0 0 0-.687 0 .502.502 0 1 1-1.005 0 1.35 1.35 0 0 1 1.349-1.348 1.35 1.35 0 0 1 1.349 1.348.502.502 0 0 1-.503.503" mask="url(#b)"/>
        <path fill="#F8E9B4" d="M48.262 14.94a1.094 1.094 0 0 1-1.252-1.082v-.288h3.384l-.12.163a3.045 3.045 0 0 1-2.012 1.207" mask="url(#b)"/>
        <path fill="#000" fill-opacity=".15" d="M47.01 13.57v.288c0 .05.004.1.01.148h3.026c.08-.086.156-.177.227-.273l.12-.163H47.01z" mask="url(#b)"/>
        <path fill="#F8E9B4" d="M48.316 11.523a1.105 1.105 0 0 0-1.307 1.087v.96h3.533a.225.225 0 0 0 .195-.338 3.546 3.546 0 0 0-2.42-1.709" mask="url(#b)"/>
    </g>
</svg>
