<svg xmlns="http://www.w3.org/2000/svg" width="36" height="36" viewBox="0 0 36 36">
    <defs>
        <linearGradient id="a" x1="50%" x2="50%" y1="0%" y2="100%">
            <stop offset="0%" stop-color="#45A70B"/>
            <stop offset="100%" stop-color="#72BF44"/>
        </linearGradient>
    </defs>
    <g fill="none" fill-rule="evenodd">
        <path fill="url(#a)" d="M11.111 6.111H28.89a5 5 0 0 1 5 5V28.89a5 5 0 0 1-5 5H11.11a5 5 0 0 1-5-5V11.11a5 5 0 0 1 5-5z" transform="rotate(45 21.414 16.586)"/>
        <g transform="translate(8.556 8)">
            <path fill="#FFF" fill-rule="nonzero" d="M9.563 17.592c-.263 0-.234-.234-.234-.467H9.3a.68.68 0 0 1-.583 0v.787c0 .175.146.32.32.32h.992c.204 0 .292-.261.146-.378-.263-.262-.612-.262-.612-.262zM7.55 17.475a.25.25 0 0 1-.232-.233v-.234a.862.862 0 0 1-.613.146v.642c0 .175.146.32.321.32h.991c.204 0 .321-.262.146-.379-.262-.262-.612-.262-.612-.262zM14.315 5.58c-.088-.03-.204 0-.204.204-.03.263-.205.32-.409.467a.136.136 0 0 0 0 .233c.146.087.409.087.583.087.7 0 .817.73.817.73.554-.992-.35-1.517-.787-1.72z"/>
            <path fill="#FFF" fill-rule="nonzero" d="M18.134 1.965c-.117 0-.263.03-.38.058a8.846 8.846 0 0 0-1.982.933c.263-.904.875-1.545 1.779-1.982-.67-.583-1.779.495-2.362 1.37-.262-.816-.029-1.574.438-2.303-.817-.263-1.546 2.245-1.546 2.245-.379-.496-.466-1.225-.437-1.983-.554.233-.466 1.05-.525 1.691-.437-.204-.874-.67-1.282-1.195-.409.35-.03 1.428.262 1.982l-1.458-.437c.03.03.03 1.079 1.254 1.69.758-.29 1.837-.32 2.653.292l-.03.03c-1.603-1.05-4.43.379-4.489 1.953-.03.845-.32 1.662-1.603 2.74-1.837 1.487-5.51 5.306-7.23 7.056.874-.263 1.749-.525 2.623-.846 6.443-2.274 9.592-5.568 5.452-5.48-.03 0-.03 0-.03-.03s0-.03.03-.03c4.023-.203 1.778 3.15-5.335 5.86A62.656 62.656 0 0 1 .64 16.718c-.204.204-.408.408-.583.612-.058.058-.029.204.059.204 1.166.146 2.215.059 3.002-.495.321-.234.933-.554 1.312-.613.817-.116 1.691-.816 1.895-.379.059.146.117.321.146.467.059.495.758.437.846.058.087-.262.233-.495.437-.729.204-.233.583-.175.729.088.029.058.058.116.058.175.03.116.088.291.117.466.087.437.729.437.816-.029l.175-1.05c.087-.553.32-1.078.67-1.545.467-.583.817-1.078.875-1.574.03-.204.088-.379.233-.525.35-.437.204-.729.35-1.312.204-.758.758-1.603 1.079-2.536.058-.117.146-.233.262-.263.117-.058.234-.116.321-.233a.306.306 0 0 1 .262-.146c.204-.029.35-.204.467-.495h-.03c-.174 0-.407-.03-.553-.117-.292-.175-.292-.583 0-.729l.204-.116c.029-.03.058-.059.058-.117.03-.408.35-.554.612-.466h.03c.145-.321.379-.583.7-.787.407-.263.728-.613 1.049-1.02.641-.788 1.574-1.167 2.449-1.05-.059-.38-.263-.496-.554-.496z"/>
            <circle cx="12.639" cy="5.417" r="1" fill="#4EAC17"/>
        </g>
    </g>
</svg>
