<svg xmlns="http://www.w3.org/2000/svg" width="36" height="36" viewBox="0 0 36 36">
    <defs>
        <linearGradient id="a" x1="50%" x2="50%" y1="0%" y2="100%">
            <stop offset="0%" stop-color="#ED9E1C"/>
            <stop offset="100%" stop-color="#FCB117"/>
        </linearGradient>
    </defs>
    <g fill="none" fill-rule="evenodd">
        <path fill="url(#a)" d="M11 6h17.778a5 5 0 0 1 5 5v17.778a5 5 0 0 1-5 5H11a5 5 0 0 1-5-5V11a5 5 0 0 1 5-5z" transform="rotate(45 21.47 16.877)"/>
        <g fill="#FFF" fill-rule="nonzero">
            <path d="M26.497 23.93h.286l-.966-.786c-.049-.172-.553-.617-1.194-1.128l-.097.017a.267.267 0 0 1-.05.004h-.007l-3.49-.085c-2.977-.073-6.395-1.158-7.054-3.987a1.981 1.981 0 0 1 .282-1.562c.487-.749 1.382-1.196 2.097-1.385a3.519 3.519 0 0 1-.307-.853c-.035-.164-.777-2.442-.864-2.355-1.206-2.296-3.134-1.637-3.134-1.637-.891.202-.954 1.203-.954 1.203l-.703.736 1.203.087c.883.305.304 1.701.108 2.12-.884 1.319-.69 3.982-.686 4.032.098 1.42 1.246 2.313 1.246 2.313.374.39.736.773 1.158 1.112.126.102.256.202.384.305.094.083.543.488.682.796.013.047.046.198.054.213.093.412.162 1.02-.123 1.362-.37.162-.857.157-.857.157l.133.157-.954.104.238.134c1.145.048.287.263.287.263-.453.43.477.143.477.143l.531-.228c.252-.109.528-.277.809-.268l.522.015c.047.001.094.001.141.005-.036-.003-.146-.105-.19-.124-.081-.035-.166-.058-.246-.093-.16-.069-.299-.193-.24-.387.37-.805 1.367-.9 1.367-.9.93-.023.573.525.573.525l-.612.101.23.233-.773.155.725.203c.212.304.5.166.5.166l.502-.405.882-.207s.334-.079-.215-.15c-.548-.072-.393-.55-.393-.55l1.896.108 1.037.215.25-.215c.25-.214 1.323.25 1.323.25l3.256 1.968.858.107c.858.108.751-.715.751-.715.215-.394-.68-1.288-.68-1.288zM12.714 11.65a.286.286 0 1 1 0-.572.286.286 0 0 1 0 .572z"/>
            <path d="M14.687 16.715c-.228.35-.296.726-.205 1.12.586 2.513 3.874 3.48 6.511 3.545l2.904.07a86.128 86.128 0 0 0-2.084-1.53l-2.449-1.627c-.837-.353-1.49-1.135-2.046-1.823a13.077 13.077 0 0 1-.71-.936c-.811.17-1.56.627-1.921 1.181z"/>
        </g>
    </g>
</svg>
